<?xml version="1.0" encoding="UTF-8" standalone="no"?>
<svg
   viewBox="0 0 1147.6376 283.26123"
   version="1.1"
   id="svg1"
   sodipodi:docname="logo_new.svg"
   width="1147.6376"
   height="283.26123"
   inkscape:version="1.4.2 (ebf0e940, 2025-05-08)"
   xmlns:inkscape="http://www.inkscape.org/namespaces/inkscape"
   xmlns:sodipodi="http://sodipodi.sourceforge.net/DTD/sodipodi-0.dtd"
   xmlns="http://www.w3.org/2000/svg"
   xmlns:svg="http://www.w3.org/2000/svg">
  <defs
     id="defs1" />
  <sodipodi:namedview
     id="namedview1"
     pagecolor="#ffffff"
     bordercolor="#000000"
     borderopacity="0.25"
     inkscape:showpageshadow="2"
     inkscape:pageopacity="0.0"
     inkscape:pagecheckerboard="0"
     inkscape:deskcolor="#d1d1d1"
     inkscape:zoom="0.54166667"
     inkscape:cx="565.84615"
     inkscape:cy="167.07692"
     inkscape:window-width="2560"
     inkscape:window-height="1302"
     inkscape:window-x="0"
     inkscape:window-y="25"
     inkscape:window-maximized="1"
     inkscape:current-layer="svg1" />
  <path
     fill="#4f39f6"
     d="m 142.05593,2.3655083 c 0.72,0 1.441,-0.003 2.184,-0.004 2.405,-0.004 4.81,0 7.215,0.003 q 2.619,-10e-4 5.238,-0.005 7.185,-0.005 14.37,10e-4 7.751,0.003 15.504,-0.004 15.18,-0.005 30.36,0 12.33,0.003 24.661,0.001 h 10.671 a 186077,186077 0 0 1 66.827,0.004 q 28.695,0.007 57.39,0 33.307,-0.01 66.615,-0.005 l 7.096,0.001 h 3.526 q 12.326,10e-4 24.653,-0.002 15.006,-0.005 30.012,0.003 7.662,0.004 15.325,0 7.004,-0.003 14.007,0.004 2.543,0.002 5.086,-0.002 3.438,-0.003 6.875,0.005 h 3.87 c 2.945,0.126 2.945,0.126 4.945,1.126 -0.666,6.7749997 -2.173,13.1759997 -3.87,19.7619997 -0.284,1.108 -0.566,2.217 -0.857,3.36 q -0.893,3.499 -1.793,6.996 a 3995,3995 0 0 0 -2.732,10.704 q -0.87,3.408 -1.744,6.815 l -0.82,3.226 -0.78,3.015 -0.677,2.638 c -1.97,6.726 -1.97,6.726 -3.727,8.484 a 79,79 0 0 1 -4.828,0.12 l -3.166,0.004 -3.503,-0.01 h -3.665 q -4.99,-0.001 -9.979,-0.013 -5.209,-0.008 -10.418,-0.008 -9.87,-0.005 -19.74,-0.02 -11.235,-0.017 -22.47,-0.023 a 59370,59370 0 0 1 -46.23,-0.05 c -0.133,0.741 -0.265,1.483 -0.4,2.247 l -0.535,2.97 -0.524,2.935 c -0.753,3.954 -1.722,7.834 -2.742,11.727 l -1.224,4.787 q -0.954,3.704 -1.916,7.406002 c -0.626,2.413 -1.243,4.83 -1.86,7.244 -0.195,0.743 -0.39,1.485 -0.593,2.251 -1.156,3.778 -1.156,3.778 -0.207,7.433 0.856,-0.07 1.712,-0.14 2.595,-0.214 10.651,-0.803 21.243,-0.933 31.92,-0.919 q 2.75,0 5.497,-0.003 5.708,0 11.416,0.005 7.32,0.007 14.637,-0.003 5.651,-0.005 11.303,0 2.701,10e-4 5.402,-0.002 3.753,-0.003 7.508,0.006 l 2.248,-0.006 c 3.1,0.013 5.508,0.147 8.474,1.136 -0.605,6.928 -1.94,13.4 -3.688,20.125 l -0.795,3.115 a 2354,2354 0 0 1 -1.665,6.464 q -1.282,4.968 -2.548,9.94 l -1.617,6.293 -0.77,3.015 -0.718,2.763 -0.63,2.441 c -0.569,1.844 -0.569,1.844 -1.569,2.844 -3.166,0.095 -6.31,0.125 -9.477,0.113 l -3.015,0.001 c -3.306,0 -6.612,-0.009 -9.918,-0.017 l -6.857,-0.004 q -9.043,-0.007 -18.085,-0.024 -9.22,-0.014 -18.439,-0.02 -18.105,-0.016 -36.209,-0.049 l -0.557,2.664 c -1.606,7.598 -3.332,15.143 -5.264,22.664 l -0.788,3.095 q -1.255,4.914 -2.516,9.827 l -0.868,3.39 a 14273,14273 0 0 1 -6.007,23.36 l -0.747,2.898 q -1.922,7.464 -3.87,14.92 a 2121,2121 0 0 0 -1.128,4.337 c -0.51,1.971 -1.029,3.94 -1.548,5.907 l -0.86,3.285 c -0.847,2.653 -0.847,2.653 -2.847,5.653 -2.969,0.43 -2.969,0.43 -6.96,0.507 l -2.288,0.054 c -2.635,0.055 -5.269,0.087 -7.905,0.12 q -2.943,0.048 -5.888,0.1 c -33.543,0.515 -67.1,0.368 -100.648,0.347 q -10.332,-0.004 -20.665,0.002 c -74.462,0.044 -74.462,0.044 -104.512,-0.402 q -3.301,-0.048 -6.602,-0.08 a 1116,1116 0 0 1 -8.778,-0.14 l -2.517003,-0.019 c -4.577,-0.117 -7.594,-0.655 -11.237,-3.489 -4.179,-4.759 -5.323,-7.468 -5.203,-13.688 0.305,-3.48 1.143,-5.48 3.203,-8.312 5.471,-4.513 10.118,-5.727 17.086003,-5.6 1.321,-0.008 1.321,-0.008 2.67,-0.014 2.932,-0.009 5.863,0.02 8.796,0.046 q 3.165,0.003 6.33,-0.002 c 5.713,0 11.427,0.028 17.142,0.063 5.976,0.031 11.952,0.034 17.93,0.04 11.311,0.016 22.622,0.057 33.934,0.107 12.88,0.056 25.76,0.083 38.64,0.108 26.491,0.052 52.981,0.14 79.472,0.252 l 0.308,-2.723 c 0.81,-5.666 2.337,-11.176 3.754,-16.715 l 0.854,-3.373 q 1.037,-4.095 2.084,-8.189 l -1.874,0.001 a 335971,335971 0 0 1 -123.187,0.054 l -2.657,10e-4 q -21.28,0.007 -42.562,0.021 -21.84,0.014 -43.684,0.017 -13.473003,0.002 -26.947003,0.014 -9.245,0.008 -18.488,0.005 -5.33,0 -10.66,0.006 -5.79,0.007 -11.577,0.001 l -3.379,0.01 c -19.357,-0.038 -19.357,-0.038 -24.9849995,-5.13 -3.19,-3.928 -4.73600002,-7.763 -4.45300002,-12.945 1.11100002,-5.039 3.95200002,-8.92 8.01500002,-11.993 4.0069995,-1.746 7.3899995,-2.187 11.7559995,-2.185 l 3.285,-0.006 3.61,0.01 3.833,-0.004 q 5.271,-0.002 10.542,0.007 5.682,0.005 11.366,0.002 9.847,0 19.694,0.008 14.238,0.011 28.475003,0.012 23.1,0.004 46.197,0.018 a 111901,111901 0 0 0 61.55,0.026 q 57.564,0.016 115.13,0.05 l 0.345,-2.066 a 173,173 0 0 1 4.28,-18.622 c 0.23,-0.809 0.46,-1.617 0.695,-2.45 q 0.834,-2.933 1.68,-5.862 l -3.414,0.005 q -41.112,0.068 -82.225,0.098 -19.882,0.015 -39.764,0.048 -17.329,0.03 -34.657,0.037 -9.176,0.004 -18.35,0.023 -8.64,0.02 -17.277,0.015 -3.169,0.001 -6.337,0.012 c -2.888,0.01 -5.775,0.008 -8.662,0.002 l -2.524,0.018 c -6.285,-0.032 -12.01,-0.714 -17.603003,-3.82 -3.502,-3.903 -5.315,-8.323 -5.097,-13.626 0.97,-4.878 2.997,-7.644 6.910003,-10.812 2.813,-1.647 4.843,-2.25 8.094,-2.259 l 2.46,-0.02 2.683,0.007 2.864,-0.015 c 3.176,-0.015 6.351,-0.016 9.526,-0.016 l 6.82,-0.026 q 7.347,-0.027 14.695,-0.037 c 7.738,-0.012 15.477,-0.037 23.215,-0.065 q 16.265,-0.054 32.528,-0.092 l 2.085,-0.005 2.088,-0.005 q 14.658,-0.034 29.317,-0.074 l 2.084,-0.006 q 17.183,-0.049 34.37,-0.105 11.55,-0.038 23.1,-0.06 7.17,-0.016 14.34,-0.039 3.335,-0.009 6.672,-0.013 4.537,-0.007 9.075,-0.025 l 2.698,0.001 c 4.278,0.103 4.278,0.103 8.286,-1.146 0.552,-2.039 0.552,-2.039 0.875,-4.563 1.243,-7.602 3.212,-14.98 5.125,-22.437002 -14.638,-1.044 -29.222,-1.124 -43.892,-1.082 l -7.688,0.01 q -8.223,0.009 -16.446,0.027 -11.9,0.024 -23.799,0.034 -19.33,0.018 -38.66,0.045 l -2.329,0.004 a 71734,71734 0 0 0 -35.136,0.058 l -2.336,0.004 q -19.285,0.034 -38.57,0.047 -11.873,0.01 -23.745,0.04 -9.082,0.021 -18.166003,0.021 -3.723,0.003 -7.446,0.017 c -3.386,0.012 -6.772,0.012 -10.158,0.01 l -2.978,0.018 c -6.46,-0.023 -11.774,-0.488 -17.4,-3.94 -3.223,-3.312 -5.12,-6.622 -5.349,-11.333 0.383,-4.882 1.914,-8.178 5.098,-11.98 4.562,-3.308 8.455,-4.126 14.005,-4.123 l 3.075,-0.006 3.372,0.01 c 1.776,-0.003 1.776,-0.003 3.587,-0.004 q 4.929,0 9.858,0.007 5.314,0.005 10.630003,0.002 9.21,0 18.417,0.008 13.314,0.011 26.63,0.012 21.6,0.005 43.202,0.018 a 97847,97847 0 0 0 44.582,0.022 l 12.976,0.004 q 53.834,0.016 107.666,0.05 l 0.345,-2.066 a 173,173 0 0 1 4.28,-18.622 c 0.23,-0.809 0.46,-1.617 0.695,-2.45 q 0.834,-2.933 1.68,-5.862 l -3.617,-0.005 a 52384,52384 0 0 1 -95.492,-0.203 l -2.105,-0.006 q -16.866,-0.044 -33.73,-0.059 -17.31,-0.02 -34.619,-0.082 c -6.48,-0.022 -12.96,-0.038 -19.44,-0.037 q -9.15,0 -18.3,-0.049 -3.358,-0.013 -6.715,-0.005 c -3.059,0.007 -6.116,-0.01 -9.175,-0.035 l -2.676,0.023 c -5.826,-0.08 -10.263,-1.257 -15.13,-4.542 -3.324,-3.489 -4.273,-6.236 -4.5,-10.938 0.238,-5.132 1.29,-8.03 4.5,-12.0619997 6.982,-4.029 14.688,-4.125 22.568,-4.126 m 545.931,-0.284 3.338,0.032 3.592,0.101 3.707,0.062 q 3.88,0.075 7.76,0.176 c 3.956,0.101 7.91,0.165 11.865,0.224 q 3.772,0.078 7.543,0.163 l 3.58,0.057 c 6.97,0.206 12.126,0.594 17.268,5.755 2.346,3.6059997 3.873,7.2709997 5.41,11.2769997 l 1.027,2.621 c 3.966,10.217 7.696,20.523 11.446,30.821 a 3646,3646 0 0 0 9.089,24.621 21495,21495 0 0 1 18.228,49.220002 l 1.069,2.895 1.979,5.36 q 0.881,2.387 1.768,4.772 a 369,369 0 0 1 1.648,4.557 c 1.476,4.214 1.476,4.214 4.183,7.696 0.625,2.625 0.625,2.625 1,5 h 1 l 0.563,-2.28 1.722,-6.986 2.084,-8.45 5.32,-21.576 3.12,-12.638 0.64,-2.598 a 19095,19095 0 0 0 9.023,-36.734002 q 1.842,-7.522 3.688,-15.045 1.765,-7.203 3.522,-14.409 1.097,-4.496 2.203,-8.99 0.51,-2.076 1.013,-4.15 c 1.672,-6.895 3.412,-13.574 6.102,-20.1439997 13.555,-0.934 27.042,-1.123 40.625,-1.063 l 5.969,0.014 q 7.203,0.017 14.406,0.05 c 1.3,4.484 0.61,7.6679997 -0.518,12.1549997 l -0.532,2.153 c -0.592,2.38 -1.198,4.757 -1.805,7.134 l -1.281,5.13 a 4202,4202 0 0 1 -3.524,13.981 c -1.25,4.941 -2.487,9.885 -3.725,14.83 q -3.552,14.156 -7.125,28.308 a 25786,25786 0 0 0 -7.908,31.436002 54705,54705 0 0 1 -9.97,39.652 l -0.752,2.99 -1.492,5.924 a 21653,21653 0 0 0 -11.836,47.178 q -2.351,9.412 -4.695,18.824 c -2.855,11.471 -5.711,22.942 -8.7,34.38 l -0.618,2.38 c -1.398,5.303 -1.398,5.303 -2.52,7.544 -4.162,1.234 -8.388,1.145 -12.694,1.133 l -2.247,0.004 c -2.394,0.003 -4.788,-0.004 -7.183,-0.012 l -2.457,-0.007 c -19.39,-0.062 -19.39,-0.062 -27.855,-0.368 l -2.194,-0.043 c -3.104,-0.153 -5.318,-0.68 -8.08,-2.12 -3.361,-3.799 -4.764,-7.983 -6.476,-12.712 l -2.332,-6.207 -1.217,-3.288 a 763,763 0 0 0 -3.963,-10.329 l -1.353,-3.47 q -1.29,-3.312 -2.585,-6.623 c -2.181,-5.646 -4.105,-11.225 -5.576,-17.1 l -0.787,-1.858 -3,-1 h 2 l -0.983,-2.51 c -8.765,-22.4 -17.366,-44.86 -25.881,-67.357 l -1.214,-3.203 -2.27,-6 -1.016,-2.684 -0.888,-2.35 c -0.732,-1.939 -0.732,-1.939 -1.748,-3.896 -4.835,14.233 -8.267,28.813 -11.804,43.408 -1.395,5.746 -2.804,11.49 -4.21,17.233 l -1.64,6.713 c -3.846,15.732 -7.762,31.447 -11.692,47.158 l -1.578,6.316 q -1.47,5.888 -2.943,11.773 c -0.29,1.158 -0.577,2.315 -0.875,3.508 -1.335,5.325 -2.704,10.626 -4.258,15.891 q -12.074,0.231 -24.147,0.443 -5.607,0.098 -11.212,0.205 -5.408,0.104 -10.815,0.195 -2.067,0.036 -4.132,0.077 c -1.925,0.04 -3.85,0.07 -5.775,0.102 l -3.324,0.06 c -2.595,-0.082 -2.595,-0.082 -4.595,-1.082 0.638,-8.088 2.503,-15.744 4.473,-23.598 l 1.074,-4.342 q 1.448,-5.844 2.908,-11.686 1.538,-6.171 3.066,-12.345 c 2.289,-9.224 4.589,-18.446 6.89,-27.668 q 1.376,-5.514 2.75,-11.029 a 34186,34186 0 0 1 10.887,-43.546 q 4,-15.968 7.99,-31.94 2.253,-9.015 4.513,-18.029002 1.236,-4.924 2.469,-9.848 l 0.493,-1.967 a 4140,4140 0 0 0 6.637,-26.909 q 1.8,-7.39 3.616,-14.776 c 0.82,-3.344 1.636,-6.689 2.438,-10.038 0.883,-3.674 1.783,-7.344 2.687,-11.013 l 0.778,-3.299 0.754,-3.02 0.635,-2.6189997 c 2.13,-5.26 4.903,-6.839 10.442,-6.738 M 1118.1029,22.620508 c 17.137,14.975 26.922,33.11 29.07,55.934 q 0.186,2.967 0.313,5.937 l 0.125,2.68 c 0.07,3.118 -0.01,6.204 -0.125,9.32 l -0.056,1.932 c -1.927,52.148002 -20.677,112.533002 -58.944,149.068002 -21.777,19.825 -48.89,30.898 -78,34 -1.243,0.14 -1.243,0.14 -2.512,0.285 -2.786,0.314 -5.574,0.61 -8.36297,0.903 l -2.668,0.29 c -5.399,0.528 -10.096,0.322 -15.457,-0.478 a 605,605 0 0 0 -7.25,-0.312 c -25.032,-1.305 -50.525,-9.134 -68.137,-27.797 -6.638,-7.781 -14.613,-18.351 -14.613,-28.891 l -2,-1 c -0.486,-3 -0.85,-5.918 -1.125,-8.937 l -0.253,-2.65 c -1.604,-17.56 1.018,-34.257 4.94,-51.35 l 0.522,-2.308 c 11.206,-49.485 11.206,-49.485 19.916,-69.755002 l 1.014,-2.373 c 6.904,-15.895 15.77,-29.46 26.986,-42.627 q 1.283,-1.624 2.562,-3.25 c 39.167,-44.1879997 127.26597,-56.681 174.05497,-18.621 m -128.61697,59.87 -1.352,1.337 c -13.537,14.26 -17.793,35.237002 -22.133,53.750002 a 1414,1414 0 0 1 -1.94,8.135 c -8.14,31.087 -8.14,31.087 -1.114,61.455 5.378,8.12 13.633,12.225 22.851,14.574 13.367,2.294 27.03497,1.694 39.68797,-3.25 l 2.726,-1.062 c 6.857,-3.057 11.99,-7.681 17.274,-12.938 l 1.867,-1.762 c 18.356,-18.821 21.737,-49.357 27.277,-73.824 0.173,-0.76 0.346,-1.517 0.523,-2.3 3.53,-15.704 5.04,-32.853002 -2.917,-47.400002 -5.68,-8.634 -15.02,-12.427 -24.75,-14.714 l -2.875,-0.687 c -21.04,-2.104 -40.516,2.894 -55.12497,18.687 M 587.39393,2.3615083 c 0.999,-0.002 1.998,-0.005 3.027,-0.01 l 3.276,0.008 3.39,-0.003 q 3.565,-0.002 7.128,0.005 c 3.597,0.005 7.194,0 10.79,-0.006 q 3.472,0 6.942,0.004 l 3.215,-0.007 c 7.48,0.023 14.875,0.476 22.324,1.139 1.5,3.937 0.488,6.8859997 -0.574,10.8649997 l -0.54,2.058 a 842,842 0 0 1 -1.173,4.41 1223,1223 0 0 0 -1.873,7.064 q -0.962,3.672 -1.932,7.343 c -2.096,7.938 -4.103,15.897 -6.091,23.862 l -1.04,4.15 -2.661,10.656 -1.705,6.828 c -10.416,41.709002 -20.773,83.434002 -30.887,125.218002 l -0.551,2.275 q -2.606,10.758 -5.196,21.518 c -3.761,15.63 -7.642,31.218 -11.777,46.753 -15.668,0.932 -31.188,0.992 -46.875,0.563 l -6.492,-0.158 q -7.817,-0.191 -15.633,-0.405 c -1.602,-3.205 -0.136,-6.275 0.712,-9.605 l 0.593,-2.4 c 0.659,-2.657 1.328,-5.312 1.996,-7.967 l 1.402,-5.641 q 1.503,-6.05 3.02,-12.1 2.404,-9.601 4.79,-19.208 2.43,-9.765 4.866,-19.53 a 10659,10659 0 0 0 9.819,-39.645 l 2.117,-8.616 c 7.427,-30.237 14.937,-60.453002 22.47,-90.664002 q 1.71,-6.844 3.41,-13.69 2.007,-8.06 4.02,-16.12 0.748,-2.993 1.492,-5.987 1.024,-4.12 2.057,-8.238 l 0.6,-2.432 c 2.028,-8.0469997 2.028,-8.0469997 3.636,-11.1569997 2.942,-0.98 4.843,-1.126 7.908,-1.13"
     id="path1" />
</svg>
